<mxfile host="app.diagrams.net" modified="2022-10-28T12:02:08.400Z" agent="5.0 (Windows NT 10.0; Win64; x64) AppleWebKit/537.36 (KHTML, like Gecko) Chrome/106.0.0.0 Safari/537.36" etag="jaG1De9wOFktb0BtlbNj" version="20.4.2" type="github">
  <diagram name="Page-1" id="74e2e168-ea6b-b213-b513-2b3c1d86103e">
    <mxGraphModel dx="1558" dy="644" grid="1" gridSize="10" guides="1" tooltips="1" connect="1" arrows="1" fold="1" page="1" pageScale="1" pageWidth="827" pageHeight="1169" math="0" shadow="0">
      <root>
        <object label="" id="0">
          <mxCell />
        </object>
        <mxCell id="1" parent="0" />
        <mxCell id="oMuCXEE0rDL8oThfwVbh-4" style="edgeStyle=orthogonalEdgeStyle;rounded=0;orthogonalLoop=1;jettySize=auto;html=1;exitX=0.5;exitY=1;exitDx=0;exitDy=0;" edge="1" parent="1" source="oMuCXEE0rDL8oThfwVbh-2">
          <mxGeometry relative="1" as="geometry">
            <mxPoint x="160" y="200" as="targetPoint" />
            <mxPoint x="320" y="220" as="sourcePoint" />
          </mxGeometry>
        </mxCell>
        <mxCell id="oMuCXEE0rDL8oThfwVbh-19" value="" style="edgeStyle=orthogonalEdgeStyle;orthogonalLoop=1;jettySize=auto;html=1;fontSize=10;rounded=0;entryX=0.5;entryY=0;entryDx=0;entryDy=0;" edge="1" parent="1" target="oMuCXEE0rDL8oThfwVbh-22">
          <mxGeometry relative="1" as="geometry">
            <mxPoint x="400" y="160" as="sourcePoint" />
            <mxPoint x="680" y="200" as="targetPoint" />
            <Array as="points">
              <mxPoint x="960" y="160" />
            </Array>
          </mxGeometry>
        </mxCell>
        <mxCell id="oMuCXEE0rDL8oThfwVbh-82" style="edgeStyle=orthogonalEdgeStyle;rounded=0;orthogonalLoop=1;jettySize=auto;html=1;entryX=0.5;entryY=0;entryDx=0;entryDy=0;" edge="1" parent="1" source="oMuCXEE0rDL8oThfwVbh-2" target="oMuCXEE0rDL8oThfwVbh-81">
          <mxGeometry relative="1" as="geometry" />
        </mxCell>
        <mxCell id="oMuCXEE0rDL8oThfwVbh-2" value="&lt;font style=&quot;font-size: 12px;&quot;&gt;Start&lt;/font&gt;" style="ellipse;whiteSpace=wrap;html=1;rounded=0;" vertex="1" parent="1">
          <mxGeometry x="500" y="40" width="120" height="81" as="geometry" />
        </mxCell>
        <mxCell id="oMuCXEE0rDL8oThfwVbh-26" style="edgeStyle=orthogonalEdgeStyle;rounded=0;orthogonalLoop=1;jettySize=auto;html=1;fontSize=12;" edge="1" parent="1" source="oMuCXEE0rDL8oThfwVbh-14">
          <mxGeometry relative="1" as="geometry">
            <mxPoint x="160" y="480" as="targetPoint" />
          </mxGeometry>
        </mxCell>
        <mxCell id="oMuCXEE0rDL8oThfwVbh-93" style="edgeStyle=orthogonalEdgeStyle;rounded=0;orthogonalLoop=1;jettySize=auto;html=1;entryX=0;entryY=0.5;entryDx=0;entryDy=0;" edge="1" parent="1" source="oMuCXEE0rDL8oThfwVbh-14" target="oMuCXEE0rDL8oThfwVbh-21">
          <mxGeometry relative="1" as="geometry">
            <Array as="points">
              <mxPoint x="40" y="380" />
              <mxPoint x="40" y="240" />
            </Array>
          </mxGeometry>
        </mxCell>
        <mxCell id="oMuCXEE0rDL8oThfwVbh-14" value="Is there 3 characters&lt;br&gt;or more ?" style="rhombus;whiteSpace=wrap;html=1;" vertex="1" parent="1">
          <mxGeometry x="80" y="320" width="160" height="121" as="geometry" />
        </mxCell>
        <mxCell id="oMuCXEE0rDL8oThfwVbh-23" value="" style="edgeStyle=orthogonalEdgeStyle;rounded=0;orthogonalLoop=1;jettySize=auto;html=1;fontSize=12;" edge="1" parent="1" source="oMuCXEE0rDL8oThfwVbh-21" target="oMuCXEE0rDL8oThfwVbh-14">
          <mxGeometry relative="1" as="geometry" />
        </mxCell>
        <mxCell id="oMuCXEE0rDL8oThfwVbh-21" value="User type&amp;nbsp;in the main &lt;br&gt;search bar" style="rounded=1;whiteSpace=wrap;html=1;fontSize=12;" vertex="1" parent="1">
          <mxGeometry x="80" y="200" width="160" height="81" as="geometry" />
        </mxCell>
        <mxCell id="oMuCXEE0rDL8oThfwVbh-48" style="edgeStyle=orthogonalEdgeStyle;rounded=0;orthogonalLoop=1;jettySize=auto;html=1;fontSize=12;endArrow=classic;endFill=1;" edge="1" parent="1" source="oMuCXEE0rDL8oThfwVbh-22">
          <mxGeometry relative="1" as="geometry">
            <mxPoint x="960" y="320" as="targetPoint" />
          </mxGeometry>
        </mxCell>
        <mxCell id="oMuCXEE0rDL8oThfwVbh-22" value="User type a character in one of the advanced search bar" style="rounded=1;whiteSpace=wrap;html=1;fontSize=12;" vertex="1" parent="1">
          <mxGeometry x="880" y="200" width="160" height="81" as="geometry" />
        </mxCell>
        <mxCell id="oMuCXEE0rDL8oThfwVbh-27" value="Yes" style="text;html=1;align=center;verticalAlign=middle;resizable=0;points=[];autosize=1;strokeColor=none;fillColor=none;fontSize=12;" vertex="1" parent="1">
          <mxGeometry x="120" y="440" width="40" height="30" as="geometry" />
        </mxCell>
        <mxCell id="oMuCXEE0rDL8oThfwVbh-29" value="No" style="text;html=1;align=center;verticalAlign=middle;resizable=0;points=[];autosize=1;strokeColor=none;fillColor=none;fontSize=12;" vertex="1" parent="1">
          <mxGeometry x="40" y="330" width="40" height="30" as="geometry" />
        </mxCell>
        <mxCell id="oMuCXEE0rDL8oThfwVbh-31" style="edgeStyle=orthogonalEdgeStyle;rounded=0;orthogonalLoop=1;jettySize=auto;html=1;fontSize=12;" edge="1" parent="1" source="oMuCXEE0rDL8oThfwVbh-30">
          <mxGeometry relative="1" as="geometry">
            <mxPoint x="160" y="640" as="targetPoint" />
          </mxGeometry>
        </mxCell>
        <mxCell id="oMuCXEE0rDL8oThfwVbh-33" style="edgeStyle=orthogonalEdgeStyle;rounded=0;orthogonalLoop=1;jettySize=auto;html=1;fontSize=12;" edge="1" parent="1" source="oMuCXEE0rDL8oThfwVbh-30">
          <mxGeometry relative="1" as="geometry">
            <mxPoint x="280" y="540" as="targetPoint" />
          </mxGeometry>
        </mxCell>
        <mxCell id="oMuCXEE0rDL8oThfwVbh-30" value="Is there key-words corresponding to&lt;br&gt;the string ?" style="rhombus;whiteSpace=wrap;html=1;" vertex="1" parent="1">
          <mxGeometry x="80" y="480" width="160" height="121" as="geometry" />
        </mxCell>
        <mxCell id="oMuCXEE0rDL8oThfwVbh-32" value="Yes" style="text;html=1;align=center;verticalAlign=middle;resizable=0;points=[];autosize=1;strokeColor=none;fillColor=none;fontSize=12;" vertex="1" parent="1">
          <mxGeometry x="120" y="600" width="40" height="30" as="geometry" />
        </mxCell>
        <mxCell id="oMuCXEE0rDL8oThfwVbh-34" value="No" style="text;html=1;align=center;verticalAlign=middle;resizable=0;points=[];autosize=1;strokeColor=none;fillColor=none;fontSize=12;" vertex="1" parent="1">
          <mxGeometry x="240" y="510" width="40" height="30" as="geometry" />
        </mxCell>
        <mxCell id="oMuCXEE0rDL8oThfwVbh-37" style="edgeStyle=orthogonalEdgeStyle;rounded=0;orthogonalLoop=1;jettySize=auto;html=1;fontSize=12;entryX=1;entryY=0.5;entryDx=0;entryDy=0;" edge="1" parent="1" source="oMuCXEE0rDL8oThfwVbh-35" target="oMuCXEE0rDL8oThfwVbh-21">
          <mxGeometry relative="1" as="geometry">
            <mxPoint x="400" y="160" as="targetPoint" />
            <Array as="points">
              <mxPoint x="360" y="240" />
            </Array>
          </mxGeometry>
        </mxCell>
        <mxCell id="oMuCXEE0rDL8oThfwVbh-35" value="Display the error message&lt;br&gt;&quot;Aucune recette...&quot;" style="rounded=1;whiteSpace=wrap;html=1;fontSize=12;" vertex="1" parent="1">
          <mxGeometry x="280" y="500" width="160" height="81" as="geometry" />
        </mxCell>
        <mxCell id="oMuCXEE0rDL8oThfwVbh-98" style="edgeStyle=orthogonalEdgeStyle;rounded=0;orthogonalLoop=1;jettySize=auto;html=1;" edge="1" parent="1" source="oMuCXEE0rDL8oThfwVbh-38" target="oMuCXEE0rDL8oThfwVbh-94">
          <mxGeometry relative="1" as="geometry" />
        </mxCell>
        <mxCell id="oMuCXEE0rDL8oThfwVbh-38" value="Cards list is updated&lt;br&gt;Advanced search list are&lt;br&gt;updated" style="rounded=1;whiteSpace=wrap;html=1;fontSize=12;" vertex="1" parent="1">
          <mxGeometry x="80" y="640" width="160" height="81" as="geometry" />
        </mxCell>
        <mxCell id="oMuCXEE0rDL8oThfwVbh-54" style="edgeStyle=orthogonalEdgeStyle;rounded=0;orthogonalLoop=1;jettySize=auto;html=1;fontSize=12;endArrow=classic;endFill=1;" edge="1" parent="1">
          <mxGeometry relative="1" as="geometry">
            <mxPoint x="960" y="480" as="targetPoint" />
            <mxPoint x="960" y="440" as="sourcePoint" />
          </mxGeometry>
        </mxCell>
        <mxCell id="oMuCXEE0rDL8oThfwVbh-90" style="edgeStyle=orthogonalEdgeStyle;rounded=0;orthogonalLoop=1;jettySize=auto;html=1;entryX=0;entryY=0.5;entryDx=0;entryDy=0;" edge="1" parent="1" source="oMuCXEE0rDL8oThfwVbh-59" target="oMuCXEE0rDL8oThfwVbh-22">
          <mxGeometry relative="1" as="geometry">
            <mxPoint x="870" y="250" as="targetPoint" />
            <Array as="points">
              <mxPoint x="840" y="380" />
              <mxPoint x="840" y="240" />
            </Array>
          </mxGeometry>
        </mxCell>
        <mxCell id="oMuCXEE0rDL8oThfwVbh-59" value="Is there key-words &lt;br&gt;not corresponding to&lt;br&gt;the string ?" style="rhombus;whiteSpace=wrap;html=1;" vertex="1" parent="1">
          <mxGeometry x="880" y="320" width="160" height="121" as="geometry" />
        </mxCell>
        <mxCell id="oMuCXEE0rDL8oThfwVbh-92" style="edgeStyle=orthogonalEdgeStyle;rounded=0;orthogonalLoop=1;jettySize=auto;html=1;" edge="1" parent="1" source="oMuCXEE0rDL8oThfwVbh-60" target="oMuCXEE0rDL8oThfwVbh-66">
          <mxGeometry relative="1" as="geometry" />
        </mxCell>
        <mxCell id="oMuCXEE0rDL8oThfwVbh-60" value="Key-words not corresponding disappear from the list" style="rounded=1;whiteSpace=wrap;html=1;fontSize=12;" vertex="1" parent="1">
          <mxGeometry x="880" y="480" width="160" height="81" as="geometry" />
        </mxCell>
        <mxCell id="oMuCXEE0rDL8oThfwVbh-61" value="Yes" style="text;html=1;align=center;verticalAlign=middle;resizable=0;points=[];autosize=1;strokeColor=none;fillColor=none;fontSize=12;" vertex="1" parent="1">
          <mxGeometry x="920" y="440" width="40" height="30" as="geometry" />
        </mxCell>
        <mxCell id="oMuCXEE0rDL8oThfwVbh-71" style="edgeStyle=orthogonalEdgeStyle;rounded=0;orthogonalLoop=1;jettySize=auto;html=1;entryX=0;entryY=0.5;entryDx=0;entryDy=0;" edge="1" parent="1" source="oMuCXEE0rDL8oThfwVbh-66" target="oMuCXEE0rDL8oThfwVbh-22">
          <mxGeometry relative="1" as="geometry">
            <mxPoint x="760" y="240" as="targetPoint" />
            <Array as="points">
              <mxPoint x="760" y="240" />
            </Array>
          </mxGeometry>
        </mxCell>
        <mxCell id="oMuCXEE0rDL8oThfwVbh-86" style="edgeStyle=orthogonalEdgeStyle;rounded=0;orthogonalLoop=1;jettySize=auto;html=1;entryX=1;entryY=0.5;entryDx=0;entryDy=0;" edge="1" parent="1" source="oMuCXEE0rDL8oThfwVbh-66" target="oMuCXEE0rDL8oThfwVbh-73">
          <mxGeometry relative="1" as="geometry" />
        </mxCell>
        <mxCell id="oMuCXEE0rDL8oThfwVbh-66" value="User clicks on a&lt;br&gt;key-word ?" style="rhombus;whiteSpace=wrap;html=1;" vertex="1" parent="1">
          <mxGeometry x="680" y="479" width="160" height="121" as="geometry" />
        </mxCell>
        <mxCell id="oMuCXEE0rDL8oThfwVbh-70" value="No" style="text;html=1;align=center;verticalAlign=middle;resizable=0;points=[];autosize=1;strokeColor=none;fillColor=none;" vertex="1" parent="1">
          <mxGeometry x="840" y="350" width="40" height="30" as="geometry" />
        </mxCell>
        <mxCell id="oMuCXEE0rDL8oThfwVbh-97" style="edgeStyle=orthogonalEdgeStyle;rounded=0;orthogonalLoop=1;jettySize=auto;html=1;entryX=0.5;entryY=0;entryDx=0;entryDy=0;" edge="1" parent="1" source="oMuCXEE0rDL8oThfwVbh-73" target="oMuCXEE0rDL8oThfwVbh-94">
          <mxGeometry relative="1" as="geometry" />
        </mxCell>
        <mxCell id="oMuCXEE0rDL8oThfwVbh-73" value="Clicked key-word appears in the tag list&lt;br&gt;Cards list is updated&lt;br&gt;Advanced search list are&lt;br&gt;updated" style="rounded=1;whiteSpace=wrap;html=1;fontSize=12;" vertex="1" parent="1">
          <mxGeometry x="480" y="500" width="160" height="81" as="geometry" />
        </mxCell>
        <mxCell id="oMuCXEE0rDL8oThfwVbh-77" style="edgeStyle=orthogonalEdgeStyle;rounded=0;orthogonalLoop=1;jettySize=auto;html=1;" edge="1" parent="1">
          <mxGeometry relative="1" as="geometry">
            <mxPoint x="560" y="800" as="targetPoint" />
            <mxPoint x="560" y="760.9999999999998" as="sourcePoint" />
          </mxGeometry>
        </mxCell>
        <mxCell id="oMuCXEE0rDL8oThfwVbh-78" value="&lt;font style=&quot;font-size: 12px;&quot;&gt;End&lt;/font&gt;" style="ellipse;whiteSpace=wrap;html=1;rounded=0;" vertex="1" parent="1">
          <mxGeometry x="500" y="800" width="120" height="81" as="geometry" />
        </mxCell>
        <mxCell id="oMuCXEE0rDL8oThfwVbh-83" style="edgeStyle=orthogonalEdgeStyle;rounded=0;orthogonalLoop=1;jettySize=auto;html=1;" edge="1" parent="1" source="oMuCXEE0rDL8oThfwVbh-81">
          <mxGeometry relative="1" as="geometry">
            <mxPoint x="560" y="500" as="targetPoint" />
            <Array as="points">
              <mxPoint x="560" y="490" />
              <mxPoint x="560" y="490" />
            </Array>
          </mxGeometry>
        </mxCell>
        <mxCell id="oMuCXEE0rDL8oThfwVbh-81" value="User click on a key-word in one of the advanced search list" style="rounded=1;whiteSpace=wrap;html=1;fontSize=12;" vertex="1" parent="1">
          <mxGeometry x="480" y="200" width="160" height="81" as="geometry" />
        </mxCell>
        <mxCell id="oMuCXEE0rDL8oThfwVbh-84" value="No" style="text;html=1;align=center;verticalAlign=middle;resizable=0;points=[];autosize=1;strokeColor=none;fillColor=none;" vertex="1" parent="1">
          <mxGeometry x="760" y="449" width="40" height="30" as="geometry" />
        </mxCell>
        <mxCell id="oMuCXEE0rDL8oThfwVbh-91" value="Yes" style="text;html=1;align=center;verticalAlign=middle;resizable=0;points=[];autosize=1;strokeColor=none;fillColor=none;" vertex="1" parent="1">
          <mxGeometry x="640" y="505.5" width="40" height="30" as="geometry" />
        </mxCell>
        <mxCell id="oMuCXEE0rDL8oThfwVbh-95" style="edgeStyle=orthogonalEdgeStyle;rounded=0;orthogonalLoop=1;jettySize=auto;html=1;entryX=1;entryY=0.5;entryDx=0;entryDy=0;" edge="1" parent="1" source="oMuCXEE0rDL8oThfwVbh-94" target="oMuCXEE0rDL8oThfwVbh-2">
          <mxGeometry relative="1" as="geometry">
            <Array as="points">
              <mxPoint x="1080" y="700" />
              <mxPoint x="1080" y="80" />
            </Array>
          </mxGeometry>
        </mxCell>
        <mxCell id="oMuCXEE0rDL8oThfwVbh-94" value="User clicks on a&lt;br&gt;recipe ?" style="rhombus;whiteSpace=wrap;html=1;" vertex="1" parent="1">
          <mxGeometry x="480" y="640" width="160" height="121" as="geometry" />
        </mxCell>
        <mxCell id="oMuCXEE0rDL8oThfwVbh-96" value="No" style="text;html=1;align=center;verticalAlign=middle;resizable=0;points=[];autosize=1;strokeColor=none;fillColor=none;" vertex="1" parent="1">
          <mxGeometry x="640" y="665" width="40" height="30" as="geometry" />
        </mxCell>
      </root>
    </mxGraphModel>
  </diagram>
</mxfile>
